<?xml version="1.0" standalone="no"?>
<!DOCTYPE svg PUBLIC "-//W3C//DTD SVG 20010904//EN"
 "http://www.w3.org/TR/2001/REC-SVG-20010904/DTD/svg10.dtd">
<svg version="1.0" xmlns="http://www.w3.org/2000/svg"
 width="1968.000000pt" height="1968.000000pt" viewBox="0 0 1968.000000 1968.000000"
 preserveAspectRatio="xMidYMid meet">
<metadata>
Created by potrace 1.14, written by Peter Selinger 2001-2017
</metadata>
<g transform="translate(0.000000,1968.000000) scale(0.100000,-0.100000)"
fill="#000000" stroke="none">
<path d="M10339 14393 c-2 -20 -4 -26 -22 -67 -9 -21 -17 -45 -17 -52 0 -8 -4
-14 -8 -14 -5 0 -9 -6 -9 -13 0 -7 -21 -69 -47 -137 -26 -69 -49 -129 -50
-135 -2 -11 -42 -115 -61 -160 -8 -16 -17 -43 -21 -60 -4 -16 -10 -34 -14 -40
-5 -5 -10 -19 -12 -30 -1 -11 -5 -22 -8 -25 -5 -5 -38 -92 -44 -115 -2 -5 -6
-17 -9 -25 -4 -8 -16 -42 -28 -75 -12 -33 -26 -71 -32 -85 -6 -14 -11 -29 -13
-35 -1 -5 -14 -41 -29 -80 -15 -38 -28 -74 -29 -80 -2 -5 -8 -21 -14 -35 -16
-37 -114 -301 -116 -314 -1 -6 -10 -28 -19 -50 -9 -21 -17 -42 -17 -47 0 -5
-4 -17 -9 -27 -6 -9 -22 -51 -37 -92 -15 -41 -33 -89 -40 -107 -8 -17 -14 -37
-14 -45 0 -8 -3 -18 -7 -22 -6 -5 -28 -59 -37 -91 -2 -5 -7 -21 -13 -35 -6
-14 -25 -65 -43 -115 -18 -49 -38 -103 -45 -120 -7 -16 -23 -59 -36 -95 -12
-36 -27 -76 -32 -90 -6 -14 -11 -29 -13 -35 -4 -14 -50 -135 -65 -170 -6 -16
-13 -34 -14 -40 -2 -9 -118 -321 -132 -355 -3 -8 -7 -19 -9 -25 -3 -12 -102
-274 -111 -295 -4 -8 -8 -19 -8 -25 -1 -5 -6 -21 -12 -35 -6 -14 -20 -52 -32
-85 -12 -33 -26 -69 -31 -80 -10 -23 -111 -295 -115 -310 -3 -12 -12 -38 -36
-92 -10 -24 -16 -43 -14 -43 2 0 -5 -21 -16 -47 -12 -27 -29 -70 -39 -98 -49
-140 -124 -341 -147 -393 -8 -18 -15 -42 -16 -52 -1 -11 -5 -20 -10 -20 -4 0
-5 -4 -2 -10 3 -5 2 -10 -3 -10 -5 0 -9 -6 -9 -12 0 -7 -14 -49 -31 -93 -17
-44 -60 -161 -97 -260 -104 -282 -107 -289 -116 -307 -5 -10 -9 -23 -9 -30 0
-7 -7 -26 -15 -42 -9 -16 -17 -37 -19 -45 -1 -9 -8 -27 -14 -41 -6 -14 -50
-131 -97 -260 -48 -129 -102 -275 -121 -325 -19 -49 -34 -96 -34 -102 0 -7 -5
-13 -12 -13 -6 0 -9 -3 -6 -6 5 -5 -28 -108 -51 -159 -14 -31 -24 -58 -28 -79
-2 -11 -7 -24 -12 -30 -4 -6 -19 -42 -32 -81 -13 -38 -28 -73 -34 -77 -5 -4
-7 -8 -4 -8 6 0 -80 -241 -115 -322 -9 -21 -13 -38 -10 -38 4 0 2 -6 -3 -12
-6 -7 -18 -38 -28 -68 -10 -30 -21 -59 -25 -65 -3 -5 -17 -43 -30 -82 -22 -65
-40 -93 -40 -62 0 6 -6 25 -14 42 -7 18 -21 55 -31 82 -9 28 -19 57 -22 65 -4
8 -7 17 -8 20 -1 3 -4 12 -8 20 -3 8 -12 35 -20 60 -9 25 -20 56 -25 70 -6 14
-25 66 -42 115 -17 50 -34 97 -37 105 -4 8 -7 18 -8 23 -2 4 -4 10 -5 15 -1 4
-2 10 -1 15 0 4 -4 7 -11 7 -6 0 -9 3 -6 6 4 3 -5 36 -19 72 -14 37 -31 85
-38 107 -7 22 -30 85 -50 140 -20 55 -38 105 -39 110 -1 6 -4 15 -7 20 -4 6
-16 42 -29 80 -12 39 -26 74 -31 80 -5 5 -9 17 -9 27 0 10 -4 26 -10 36 -5 9
-19 44 -29 77 -11 33 -32 92 -46 130 -15 39 -28 75 -29 82 -1 7 -5 16 -9 19
-4 4 -7 14 -7 22 0 8 -6 28 -14 45 -27 61 -46 117 -40 117 4 0 2 6 -3 13 -5 6
-20 41 -32 77 -13 36 -26 72 -29 80 -3 8 -6 17 -6 20 -1 3 -6 19 -13 35 -20
54 -26 70 -28 80 -2 6 -15 42 -30 80 -14 39 -28 77 -30 85 -2 8 -15 47 -30 85
-15 39 -33 90 -41 115 -8 25 -19 54 -24 65 -9 19 -109 300 -114 320 -2 6 -6
17 -9 25 -8 19 -48 132 -51 145 -2 6 -8 24 -15 40 -7 17 -19 50 -27 75 -20 59
-21 63 -24 75 -1 6 -7 19 -13 30 -6 11 -12 26 -14 33 -6 26 -10 38 -22 67 -7
17 -14 35 -15 40 -2 6 -6 17 -9 25 -13 36 -146 407 -189 530 -16 47 -33 94
-38 105 -5 11 -16 40 -24 65 -8 25 -28 81 -44 125 -16 44 -30 83 -31 87 -1 4
-8 23 -16 42 -8 20 -15 40 -15 45 0 5 -9 31 -20 57 -11 26 -22 54 -23 63 -1 9
-5 21 -8 26 -6 9 -32 84 -34 95 -1 9 -37 104 -49 130 l-11 25 -2932 0 -2933 0
0 -517 0 -518 23 -1 c12 0 1099 -1 2415 -1 1744 -1 2394 -4 2400 -12 4 -6 7
-14 8 -18 1 -5 2 -9 4 -10 1 -2 3 -10 5 -18 4 -19 54 -150 66 -172 5 -10 9
-25 9 -33 0 -8 5 -15 12 -15 6 0 9 -3 5 -6 -3 -3 3 -29 15 -58 11 -28 21 -59
23 -69 2 -9 7 -23 12 -30 4 -6 15 -32 24 -57 8 -25 32 -90 53 -145 92 -245 77
-206 126 -332 17 -44 32 -87 34 -95 1 -7 6 -20 11 -28 5 -8 10 -22 12 -30 2
-13 23 -69 45 -115 5 -12 10 -27 12 -35 2 -8 9 -28 15 -45 7 -16 14 -34 15
-40 2 -5 8 -21 13 -35 6 -14 34 -88 62 -165 29 -77 55 -147 58 -155 3 -8 5
-18 5 -22 -1 -5 3 -8 10 -8 6 0 9 -2 6 -5 -3 -3 26 -88 64 -188 38 -100 71
-186 72 -192 2 -5 6 -17 9 -25 4 -8 20 -53 37 -100 17 -47 35 -94 40 -105 19
-42 230 -613 230 -624 0 -6 4 -11 8 -11 5 0 9 -6 10 -12 2 -22 13 -57 32 -103
5 -11 20 -49 33 -85 14 -36 28 -74 32 -85 5 -11 9 -22 9 -25 2 -7 36 -100 47
-127 5 -13 13 -33 18 -45 14 -35 65 -172 104 -278 19 -52 38 -104 43 -115 4
-11 8 -22 9 -25 1 -3 5 -12 8 -20 4 -8 34 -89 67 -180 33 -91 65 -174 70 -185
5 -11 32 -83 60 -160 28 -77 55 -149 60 -160 4 -11 18 -47 31 -80 12 -33 28
-73 35 -90 7 -16 10 -33 8 -37 -3 -4 0 -8 5 -8 6 0 11 -7 11 -16 0 -8 9 -36
19 -62 27 -64 103 -265 105 -277 1 -5 10 -27 19 -49 9 -21 17 -42 17 -46 0 -4
13 -38 28 -76 16 -38 30 -73 32 -79 1 -5 7 -21 12 -35 6 -14 11 -29 12 -35 6
-35 4 -35 705 -35 l689 0 51 138 c29 75 54 144 56 152 10 37 31 86 40 92 6 4
7 8 3 8 -3 0 5 28 18 63 14 34 27 69 29 77 4 14 20 56 75 200 12 30 23 63 25
73 2 9 7 23 12 30 4 6 8 14 8 17 1 11 46 126 55 143 6 10 8 22 5 27 -4 6 -1
10 4 10 6 0 11 10 11 23 0 13 3 27 7 31 5 4 8 11 9 14 0 4 8 24 17 46 9 21 17
42 17 47 0 5 4 17 9 27 9 15 67 168 75 197 2 6 6 19 11 30 10 27 48 128 71
190 10 28 18 53 16 58 -1 4 2 7 8 7 6 0 9 3 8 8 -2 4 3 21 9 37 7 17 28 75 48
130 20 55 40 109 45 120 14 32 102 269 104 280 1 6 5 16 9 22 5 7 10 21 12 30
1 10 15 50 30 88 15 39 34 88 42 110 8 22 19 49 24 60 4 11 14 38 21 60 7 22
18 51 25 64 7 14 10 28 7 33 -3 4 0 8 5 8 6 0 10 3 9 8 0 4 2 14 5 22 6 15 48
129 112 308 20 53 41 108 47 122 6 14 12 30 14 35 1 6 14 42 29 80 15 39 28
77 30 85 3 13 21 59 60 155 11 25 25 67 30 85 1 3 5 14 9 25 5 11 24 63 43
115 19 52 38 104 43 115 8 18 21 53 25 65 1 3 4 12 8 20 3 8 15 42 27 75 11
33 23 67 27 75 3 8 7 20 9 25 9 31 30 81 37 86 5 3 7 8 6 10 -4 5 35 118 57
167 9 18 17 40 19 50 4 19 50 145 65 177 5 11 27 72 50 135 22 63 45 123 51
134 6 10 12 26 14 35 3 15 36 106 58 161 6 14 11 30 13 35 2 10 238 644 251
675 3 8 7 20 8 25 2 9 89 237 118 310 6 17 12 32 13 35 0 3 3 12 7 20 36 94
87 238 87 248 0 23 29 12 47 -18 9 -16 21 -30 25 -30 4 0 8 -6 8 -12 0 -7 16
-31 35 -53 50 -57 55 -64 55 -69 0 -3 29 -44 65 -90 36 -46 65 -89 65 -95 0
-6 4 -11 9 -11 4 0 28 -28 52 -62 23 -35 45 -65 48 -68 17 -15 72 -92 82 -114
7 -14 15 -26 19 -26 4 0 31 -34 60 -75 29 -41 57 -75 62 -75 4 0 8 -6 8 -12 0
-7 12 -26 26 -43 14 -16 33 -42 42 -57 9 -16 21 -28 27 -29 5 0 1865 -1 4133
-2 l4122 -2 -2 520 -3 520 -3720 0 c-2526 0 -3723 3 -3730 10 -6 5 -26 33 -45
60 -18 28 -36 52 -40 55 -3 3 -27 34 -53 70 -26 36 -51 70 -55 75 -4 6 -34 46
-67 90 -32 44 -62 84 -67 90 -40 50 -88 115 -88 120 0 5 -24 36 -47 60 -7 8
-13 18 -13 24 0 6 -9 16 -20 23 -11 7 -20 16 -20 21 0 4 -5 13 -10 20 -9 10
-130 174 -227 306 -10 13 -24 30 -30 37 -7 7 -13 15 -13 18 0 6 -132 183 -160
213 -11 12 -20 26 -20 32 0 5 -13 23 -30 41 -16 18 -30 36 -30 40 0 5 -6 15
-13 22 -7 7 -40 49 -73 93 -32 44 -62 84 -67 90 -4 5 -39 52 -77 103 -39 51
-70 97 -70 102 0 4 -3 10 -7 12 -5 2 -33 37 -64 78 -187 250 -269 362 -269
366 0 2 -8 12 -17 22 -10 11 -47 59 -83 108 -35 49 -68 94 -73 99 -4 6 -14 19
-22 30 -9 12 -15 15 -16 8z"/>
<path d="M10 10472 c-7 -3 -10 -876 -10 -2593 l0 -2589 693 0 692 0 0 1031 0
1032 23 8 c16 6 21 5 16 -2 -4 -8 -1 -8 13 -1 11 6 25 7 33 2 8 -5 19 -5 25 0
6 5 17 5 25 0 8 -5 21 -5 32 1 10 5 18 6 18 2 0 -9 67 -9 76 0 4 4 15 2 25 -3
12 -7 20 -7 24 0 4 6 13 7 23 2 19 -9 54 -8 71 2 6 4 11 2 11 -4 0 -8 6 -8 20
0 14 8 20 8 20 0 0 -8 6 -8 20 0 14 8 20 8 20 0 0 -8 6 -8 20 0 14 8 20 8 20
0 0 -8 6 -8 20 0 14 8 20 8 20 0 0 -8 6 -8 20 0 14 8 20 8 20 0 0 -8 6 -8 20
0 14 8 20 8 20 0 0 -7 6 -8 18 -1 9 5 19 10 22 12 3 1 15 -3 27 -9 14 -8 24
-9 28 -2 4 6 13 7 23 1 11 -6 24 -6 35 0 9 6 17 6 17 2 0 -9 67 -9 76 0 4 4
15 2 25 -3 12 -7 20 -7 24 0 4 6 13 7 23 2 19 -9 54 -8 71 2 6 4 11 2 11 -4 0
-8 6 -8 20 0 14 8 20 8 20 0 0 -8 6 -8 20 0 14 8 20 8 20 0 0 -7 6 -8 17 -1
10 5 20 10 23 12 3 1 15 -3 27 -9 14 -8 24 -9 28 -2 4 6 13 7 24 1 10 -6 23
-6 31 -1 9 5 19 5 26 -1 8 -7 14 -6 19 1 4 7 12 7 25 0 12 -6 21 -7 25 0 4 6
15 6 30 0 16 -6 25 -6 25 0 0 8 28 2 50 -10 3 -2 15 2 28 9 15 8 22 8 22 1 0
-8 6 -8 20 0 14 8 20 8 20 0 0 -7 6 -8 19 0 14 7 22 7 26 0 4 -7 12 -7 18 -2
7 4 23 7 37 5 14 -2 30 -4 36 -5 9 -1 12 -272 12 -1022 1 -562 1 -1027 2
-1033 0 -10 145 -13 690 -13 545 0 690 3 691 13 1 16 1 5092 0 5137 l-1 35
-690 0 -690 0 0 -65 c-1 -36 -1 -500 -1 -1032 l-1 -968 -21 -1 c-32 0 -1647 0
-1677 0 l-26 1 1 1026 c0 564 -2 1029 -5 1032 -5 7 -1351 10 -1370 4z"/>
<path d="M10725 10472 l-21 -3 1 -2592 0 -2592 1415 0 c1720 0 1967 3 1983 27
7 9 19 26 27 38 12 18 110 149 137 185 4 6 24 33 42 60 19 28 38 52 41 55 5 5
143 192 274 373 32 45 63 84 67 85 5 2 9 10 9 18 0 8 4 14 8 14 4 0 16 15 27
33 10 17 29 43 42 57 13 14 23 28 23 31 0 3 9 16 20 29 11 13 20 26 20 29 0 4
-620 7 -1377 7 l-1378 0 0 192 c0 106 -4 192 -9 192 -5 0 -2 8 5 17 12 14 12
16 0 8 -10 -6 -12 -4 -6 6 12 18 12 449 1 449 -5 0 -4 6 1 13 5 6 8 41 7 77 0
36 2 70 7 75 8 11 120 12 138 1 6 -4 11 -4 11 1 0 10 132 9 148 -1 7 -4 12 -4
12 1 0 4 11 8 25 8 14 0 25 -3 25 -6 0 -4 16 -3 35 1 19 4 35 4 35 -1 0 -5 11
-4 25 1 16 6 25 6 25 -1 0 -6 6 -6 18 0 11 6 24 6 35 0 11 -7 24 -6 37 1 13 7
20 7 20 1 0 -7 8 -7 23 -2 12 5 31 5 42 1 11 -4 24 -5 29 -2 13 8 56 9 56 2 0
-8 44 -5 58 4 7 4 12 3 12 -2 0 -5 12 -7 28 -5 31 5 38 5 72 0 14 -2 33 1 43
5 9 5 17 5 17 1 0 -4 47 -8 105 -8 58 0 105 4 105 8 0 5 6 5 13 0 6 -4 206 -8
443 -8 l431 -1 0 527 0 527 -674 -1 c-370 -1 -673 -6 -673 -10 0 -5 -5 -5 -11
-2 -17 11 -59 13 -59 2 0 -6 -5 -6 -12 -1 -11 8 -130 11 -148 4 -19 -6 -40 -7
-40 -1 0 9 -54 6 -69 -4 -6 -3 -11 -3 -11 2 0 4 -25 8 -55 8 -30 0 -55 -2 -55
-5 0 -7 -79 -4 -86 3 -3 3 -17 2 -30 -3 -13 -5 -26 -5 -28 -1 -3 5 -23 5 -43
2 -21 -4 -47 -5 -59 -2 -20 6 -20 12 -20 199 1 122 -3 192 -9 192 -7 0 -7 3 0
8 12 9 14 152 1 152 -4 0 -2 8 5 17 12 14 12 15 1 9 -11 -7 -12 -4 -5 10 5 11
8 114 8 229 l-1 210 1000 3 c1628 6 1751 7 1749 12 -6 22 -27 60 -32 60 -4 0
-15 14 -25 32 -11 17 -25 39 -32 47 -14 16 -187 252 -214 291 -8 12 -23 31
-32 43 -9 12 -61 83 -115 157 -53 74 -101 137 -105 138 -4 2 -8 8 -8 13 0 8
-20 35 -47 64 -7 8 -13 18 -13 24 0 6 -4 11 -10 11 -5 0 -10 7 -10 15 0 8 -4
15 -8 15 -4 0 -15 13 -24 28 -9 15 -30 43 -46 61 l-29 34 -1669 1 c-918 1
-1678 0 -1689 -2z"/>
<path d="M14527 10472 c-15 -3 -15 -5 1 -30 9 -15 23 -33 30 -42 7 -8 34 -44
60 -80 26 -36 76 -106 112 -155 35 -50 69 -95 75 -102 19 -23 30 -38 48 -66
10 -16 25 -36 32 -45 8 -9 50 -66 95 -127 44 -60 87 -118 95 -128 8 -9 15 -20
15 -22 0 -3 23 -35 50 -70 28 -35 50 -69 50 -74 0 -5 3 -11 8 -13 9 -4 102
-126 102 -134 0 -3 6 -12 13 -19 19 -22 29 -35 86 -115 30 -41 57 -77 61 -80
3 -3 16 -21 27 -40 12 -19 30 -44 41 -55 10 -11 27 -34 38 -50 10 -17 44 -64
75 -105 114 -154 139 -190 137 -194 -2 -2 8 -13 22 -25 14 -11 22 -20 18 -21
-3 0 2 -10 13 -22 10 -13 65 -86 121 -163 56 -77 106 -141 110 -143 5 -2 8
-10 8 -18 0 -8 5 -14 10 -14 6 0 10 -5 10 -11 0 -6 6 -17 13 -24 18 -21 28
-35 72 -95 22 -30 44 -58 50 -62 5 -4 6 -8 1 -8 -6 0 -3 -6 6 -12 16 -14 135
-175 155 -210 10 -18 -3 -40 -114 -192 -69 -94 -145 -198 -169 -231 -24 -33
-48 -65 -53 -71 -5 -6 -32 -44 -61 -85 -29 -41 -56 -76 -59 -79 -3 -3 -26 -34
-50 -70 -25 -36 -48 -67 -51 -70 -3 -3 -35 -45 -70 -95 -73 -103 -79 -109
-102 -136 -10 -10 -18 -23 -18 -29 0 -5 -4 -10 -10 -10 -5 0 -10 -5 -10 -10 0
-6 -5 -16 -10 -23 -6 -7 -29 -37 -50 -67 -22 -30 -46 -62 -53 -70 -8 -8 -29
-37 -47 -65 -19 -27 -40 -56 -47 -65 -6 -8 -40 -53 -74 -100 -34 -47 -76 -104
-93 -127 -17 -23 -42 -58 -56 -78 -14 -20 -32 -44 -40 -54 -8 -10 -40 -53 -70
-95 -30 -42 -79 -109 -108 -149 -29 -40 -60 -81 -68 -92 -74 -103 -140 -191
-146 -193 -5 -2 -8 -8 -8 -12 0 -5 -21 -37 -47 -72 -27 -35 -57 -76 -68 -92
-22 -31 -62 -85 -98 -130 -12 -16 -23 -33 -25 -37 -2 -5 304 -9 687 -9 l691 0
43 58 c23 32 62 87 87 122 25 35 53 71 63 82 9 10 14 18 10 18 -4 0 2 9 13 20
26 26 40 44 45 57 2 5 14 23 27 39 19 25 114 155 236 322 17 23 42 58 56 76
14 19 33 45 42 58 9 12 41 55 70 95 29 39 60 82 68 94 8 12 32 44 53 70 20 27
37 51 37 54 0 4 6 12 13 19 6 7 20 24 29 37 10 13 60 81 110 150 51 70 116
158 143 197 28 39 53 71 56 72 5 0 64 -78 206 -275 40 -55 76 -105 80 -110 4
-6 21 -28 38 -50 16 -22 33 -44 37 -50 5 -5 26 -35 48 -65 22 -30 43 -59 47
-65 5 -5 62 -84 128 -175 65 -91 123 -166 127 -168 4 -2 8 -10 8 -18 0 -8 5
-14 10 -14 6 0 10 -4 10 -10 0 -5 8 -19 18 -29 9 -10 35 -44 57 -75 22 -31 57
-78 78 -105 20 -27 37 -54 37 -60 0 -6 4 -11 8 -11 5 0 26 -26 48 -57 36 -54
53 -77 79 -107 6 -7 15 -19 20 -27 32 -50 73 -107 93 -129 12 -14 22 -28 22
-32 0 -5 311 -8 690 -8 380 0 690 3 690 7 0 6 -77 112 -89 123 -3 3 -22 29
-41 57 -19 29 -38 53 -42 53 -5 0 -8 4 -8 9 0 6 -40 63 -88 128 -49 65 -101
137 -117 161 -15 23 -32 42 -37 42 -5 0 -7 4 -4 9 4 5 3 11 -2 13 -4 1 -68 86
-142 188 -118 163 -156 215 -189 256 -4 5 -13 20 -20 31 -6 12 -17 28 -25 36
-8 8 -27 32 -43 55 -68 97 -158 217 -165 220 -4 2 -8 10 -8 18 0 8 -4 14 -10
14 -5 0 -10 6 -10 14 0 8 -4 16 -8 18 -7 2 -68 83 -176 233 -8 11 -38 51 -65
88 -28 37 -51 72 -51 77 0 4 -4 10 -8 12 -7 3 -59 69 -92 118 -8 12 -26 37
-40 55 -14 18 -32 43 -40 55 -8 13 -25 35 -37 50 -13 15 -23 30 -23 33 0 3 -9
16 -20 29 -11 12 -48 61 -82 108 -34 47 -65 87 -70 88 -4 2 -8 8 -8 13 0 5
-29 48 -65 95 -56 76 -63 88 -50 101 8 8 15 18 15 21 0 4 10 19 23 33 12 14
27 32 32 41 6 9 69 96 140 193 72 97 146 198 165 225 19 27 69 94 110 150 41
56 99 137 129 179 30 42 58 78 63 79 4 2 8 10 8 17 0 7 7 16 16 19 8 3 13 10
10 14 -3 5 4 15 15 22 10 8 19 18 19 23 0 5 6 14 13 21 6 8 19 24 27 36 8 12
21 28 28 36 6 7 12 15 12 19 0 4 6 13 13 20 17 20 27 33 67 90 19 28 39 55 45
62 16 20 28 35 65 88 19 28 39 55 45 62 5 7 46 62 90 123 44 61 105 144 135
185 30 40 62 83 70 95 14 20 88 123 183 253 23 31 65 87 92 125 28 37 75 101
104 142 30 41 57 77 60 80 3 3 22 28 40 55 19 28 40 53 45 57 14 10 78 9 -698
10 -658 1 -679 1 -692 -18 -7 -10 -19 -26 -27 -34 -7 -8 -46 -62 -87 -120 -41
-58 -77 -107 -80 -110 -3 -3 -22 -27 -41 -55 -18 -27 -36 -52 -39 -55 -3 -3
-17 -21 -30 -40 -14 -19 -28 -39 -32 -45 -64 -82 -108 -141 -108 -148 0 -4
-11 -20 -24 -35 -13 -15 -55 -70 -92 -122 -37 -52 -71 -96 -76 -98 -4 -2 -8
-9 -8 -14 0 -6 -7 -18 -15 -27 -15 -15 -70 -90 -105 -141 -8 -12 -20 -28 -25
-34 -6 -6 -33 -42 -60 -81 -27 -38 -57 -79 -67 -89 -10 -11 -18 -23 -18 -27 0
-4 -6 -14 -13 -21 -7 -7 -48 -62 -92 -123 -44 -60 -84 -113 -90 -117 -5 -4 -7
-8 -2 -8 4 0 -1 -8 -10 -18 -10 -10 -25 -28 -33 -40 l-14 -22 -23 25 c-13 13
-23 27 -23 31 0 4 -7 14 -15 23 -26 27 -145 192 -145 201 0 4 -3 10 -7 12 -12
5 -103 127 -103 137 0 5 -3 11 -7 13 -9 3 -136 174 -167 223 -11 16 -30 41
-43 55 -13 14 -26 33 -29 43 -3 9 -8 17 -12 17 -4 0 -18 18 -32 40 -14 22 -28
40 -32 40 -5 0 -8 4 -8 9 0 5 -47 72 -105 150 -58 77 -105 145 -105 150 0 5
-4 11 -8 13 -5 2 -26 28 -48 58 -21 30 -44 62 -51 70 -26 33 -176 238 -206
283 -23 34 -38 47 -57 48 -101 2 -1330 3 -1343 1z"/>
</g>
</svg>
