<svg width="40" height="40" viewBox="0 0 40 40" fill="none" xmlns="http://www.w3.org/2000/svg">
<path d="M30.8987 20.2871L24.7492 16.8404L33.2948 8.29475L33.6484 7.94119L33.2948 7.58764L32.4111 6.70389L32.0575 6.35034L31.7039 6.70389L22.7104 15.6974L20.5084 14.4632L22.3838 3.69848C22.3838 3.6984 22.3838 3.69833 22.3838 3.69826C22.4733 3.18562 22.2005 2.67535 21.7168 2.47101C21.2378 2.26632 20.6817 2.41901 20.3712 2.83666L20.3702 2.838L8.74397 18.588L8.74293 18.5894C8.55382 18.8475 8.48038 19.177 8.55012 19.4948C8.61868 19.8141 8.82249 20.0835 9.10342 20.2395L9.10429 20.24L14.9405 23.4673L6.70394 31.7039L6.35039 32.0574L6.70394 32.411L7.58769 33.2947L7.94125 33.6483L8.2948 33.2947L16.9899 24.5996L19.2458 25.8472L16.9755 36.2524C16.9754 36.2526 16.9754 36.2528 16.9753 36.253C16.863 36.7644 17.1182 37.2825 17.5879 37.5072L17.588 37.5073C17.7432 37.5815 17.9096 37.6174 18.0737 37.6174C18.4036 37.6174 18.7294 37.4717 18.9498 37.1996L18.9505 37.1988L31.2255 21.9738L31.2267 21.9723C31.433 21.7143 31.5155 21.3805 31.4553 21.0572L31.4553 21.0572L31.4544 21.0526C31.3912 20.7299 31.1887 20.449 30.8989 20.2872C30.8988 20.2872 30.8988 20.2871 30.8987 20.2871ZM18.7125 16.037L18.7132 16.0374L21.0582 17.3509L16.5976 21.8115L11.3171 18.892L19.3487 8.01079L18.1552 14.8615C18.1551 14.8618 18.1551 14.8621 18.155 14.8624C18.0718 15.3346 18.2982 15.8041 18.7125 16.037ZM28.638 21.5993L20.19 32.0775L21.6235 25.5078L21.6236 25.5075C21.7292 25.0222 21.5045 24.5248 21.0699 24.2839L21.0694 24.2836L18.6458 22.9438L23.0958 18.4937L28.638 21.5993Z" fill="#52E0FF" stroke="#52E0FF"/>
</svg>
