<svg width="37" height="41" viewBox="0 0 37 41" fill="none" xmlns="http://www.w3.org/2000/svg">
<path d="M2.05346 38.8915L2.05359 38.89L5.09502 2.28594C5.09508 2.28526 5.09515 2.28458 5.09521 2.28391C5.10138 2.21995 5.11652 2.18077 5.1291 2.15759C5.14172 2.13435 5.15695 2.11754 5.17487 2.1039C5.21438 2.07384 5.28008 2.05103 5.35762 2.05103C5.44087 2.05103 5.50757 2.07635 5.54659 2.10714C5.57455 2.1292 5.61169 2.17027 5.6194 2.27611L5.62002 2.28463L5.62009 2.28462L7.42164 22.3033C7.42167 22.3037 7.42171 22.3041 7.42174 22.3045C7.52071 23.4466 8.47357 23.9428 9.24183 23.9428C10.0178 23.9428 10.9477 23.4415 11.0614 22.3104L11.0616 22.3079L11.9038 13.482C11.9038 13.4817 11.9038 13.4814 11.9039 13.4812C11.9142 13.3793 11.9504 13.3392 11.9789 13.3164C12.019 13.2843 12.0834 13.2594 12.1575 13.2538L12.1658 13.2532L12.1741 13.2523C12.2322 13.2459 12.2882 13.2591 12.3278 13.2844C12.3585 13.304 12.4035 13.3451 12.4281 13.4524L12.4281 13.4525L14.0189 20.3849C14.019 20.3851 14.0191 20.3854 14.0191 20.3857C14.2415 21.3657 15.0827 21.8414 15.8547 21.7841C16.5735 21.7624 17.418 21.2936 17.5961 20.2933L2.05346 38.8915ZM2.05346 38.8915C2.0181 39.302 1.95524 39.6365 1.87104 39.8814C1.83006 40.0006 1.77466 40.1268 1.69543 40.2326C1.6315 40.318 1.45388 40.518 1.15936 40.4988C0.859726 40.4792 0.71064 40.2518 0.659142 40.1551C0.596363 40.0373 0.561512 39.903 0.54007 39.7788C0.495934 39.5233 0.487507 39.1811 0.518486 38.7655L0.518852 38.7611L3.57196 2.1581C3.57204 2.15703 3.57212 2.15597 3.57219 2.1549C3.65585 1.01299 4.60809 0.5 5.38102 0.5C6.14927 0.5 7.10212 0.996233 7.20111 2.13833C7.20114 2.13872 7.20117 2.13911 7.20121 2.13951L9.00263 22.1569C9.00265 22.1571 9.00267 22.1573 9.00269 22.1575C9.00877 22.2223 9.02405 22.2619 9.03672 22.2852C9.04933 22.3085 9.06456 22.3253 9.08248 22.3389C9.12199 22.369 9.18769 22.3918 9.26523 22.3918C9.34092 22.3918 9.40923 22.3698 9.45066 22.3394C9.469 22.3259 9.48355 22.3101 9.49528 22.2891C9.50701 22.2682 9.52201 22.2312 9.52783 22.1684L9.52796 22.167L10.3702 13.3405C10.3702 13.3401 10.3703 13.3398 10.3703 13.3394C10.4688 12.2816 11.3183 11.7624 12.0659 11.7166C12.8116 11.6709 13.72 12.0749 13.9638 13.1114L13.9644 13.114L15.5555 20.0478L15.5556 20.0478L15.5576 20.0573C15.568 20.107 15.5831 20.1348 15.5941 20.1504C15.6052 20.1662 15.6195 20.1798 15.6395 20.1923C15.6827 20.2195 15.7518 20.2402 15.8372 20.2449C15.8891 20.2432 15.9437 20.2262 15.9839 20.1973C16.017 20.1735 16.0562 20.1315 16.0738 20.0352L16.0743 20.0327C16.2681 19.0026 17.1259 18.5461 17.876 18.5461H17.8877V18.546L17.8979 18.5462C18.6396 18.5613 19.5176 19.0286 19.6805 20.0833L19.6807 20.0848L22.044 35.7087L22.0447 35.7131C22.0613 35.8304 22.1049 35.8703 22.1309 35.8884C22.1685 35.9146 22.2291 35.9324 22.2985 35.9276L22.3069 35.927L22.3153 35.9267C22.3858 35.9241 22.453 35.9001 22.4956 35.8661C22.5149 35.8507 22.5303 35.8327 22.5422 35.81C22.554 35.7875 22.5676 35.7504 22.5718 35.6906L22.572 35.6888L24.6544 7.84055C24.6544 7.84034 24.6544 7.84013 24.6544 7.83992C24.736 6.70699 25.6656 6.17097 26.4517 6.17097H26.4751C27.248 6.17097 28.1803 6.66953 28.2946 7.79121L28.2946 7.79171L29.8039 22.7497L29.8041 22.7528C29.8099 22.8136 29.8245 22.8507 29.8367 22.8728C29.8488 22.8949 29.8639 22.9116 29.8821 22.9254C29.9224 22.956 29.9865 22.9772 30.0551 22.9772H30.0733L30.0914 22.9786C30.1391 22.982 30.1978 22.9675 30.2414 22.9353C30.2742 22.9112 30.3175 22.8645 30.3308 22.7526L30.331 22.7509L31.4303 13.7426C31.5304 12.828 32.2743 12.183 33.1854 12.1522L33.1938 12.1519H33.2023H33.2024H33.2024H33.2025H33.2026H33.2026H33.2027H33.2028H33.2028H33.2029H33.203H33.203H33.2031H33.2032H33.2032H33.2033H33.2034H33.2034H33.2035H33.2036H33.2037H33.2037H33.2038H33.2039H33.2039H33.204H33.2041H33.2041H33.2042H33.2043H33.2043H33.2044H33.2045H33.2045H33.2046H33.2047H33.2048H33.2048H33.2049H33.205H33.205H33.2051H33.2052H33.2052H33.2053H33.2054H33.2054H33.2055H33.2056H33.2056H33.2057H33.2058H33.2058H33.2059H33.206H33.2061H33.2061H33.2062H33.2063H33.2063H33.2064H33.2065H33.2065H33.2066H33.2067H33.2067H33.2068H33.2069H33.2069H33.207H33.2071H33.2071H33.2072H33.2073H33.2074H33.2074H33.2075H33.2076H33.2076H33.2077H33.2078H33.2078H33.2079H33.208H33.208H33.2081H33.2082H33.2082H33.2083H33.2084H33.2085H33.2085H33.2086H33.2087H33.2087H33.2088H33.2089H33.2089H33.209H33.2091H33.2091H33.2092H33.2093H33.2093H33.2094H33.2095H33.2095H33.2096H33.2097H33.2098H33.2098H33.2099H33.21H33.21H33.2101H33.2102H33.2102H33.2103H33.2104H33.2104H33.2105H33.2106H33.2106H33.2107H33.2108H33.2109H33.2109H33.211H33.2111H33.2111H33.2112H33.2113H33.2113H33.2114H33.2115H33.2115H33.2116H33.2117H33.2117H33.2118H33.2119H33.2119H33.212H33.2121H33.2122H33.2122H33.2123H33.2124H33.2124H33.2125H33.2126H33.2126H33.2127H33.2128H33.2128H33.2129H33.213H33.213H33.2131H33.2132H33.2133H33.2133H33.2134H33.2135H33.2135H33.2136H33.2137H33.2137H33.2138H33.2139H33.2139H33.214H33.2141H33.2141H33.2142H33.2143H33.2143H33.2144H33.2145H33.2146H33.2146H33.2147H33.2148H33.2148H33.2149H33.215H33.215H33.2151H33.2152H33.2152H33.2153H33.2154H33.2154H33.2155H33.2156H33.2157H33.2157H33.2158H33.2159H33.2159H33.216H33.2161H33.2161H33.2162H33.2163H33.2163H33.2164H33.2165H33.2165H33.2166H33.2167H33.2167H33.2168H33.2169H33.217H33.217H33.2171H33.2172H33.2172H33.2173H33.2174H33.2174H33.2175H33.2176H33.2176H33.2177H33.2178H33.2178H33.2179H33.218H33.218H33.2181H33.2182H33.2183H33.2183H33.2184H33.2185H33.2185H33.2186H33.2187H33.2187H33.2188H33.2189H33.2189H33.219H33.2191H33.2191H33.2192H33.2193H33.2194H33.2194H33.2195H33.2196H33.2196H33.2197H33.2198H33.2198H33.2199H33.22H33.22H33.2201H33.2202H33.2202H33.2203H33.2204H33.2204H33.2205H33.2206H33.2207H33.2207H33.2208H33.2209H33.2209H33.221H33.2211H33.2211H33.2212H33.2213H33.2213H33.2214H33.2215H33.2215H33.2216H33.2217H33.2218H33.2218H33.2219H33.222H33.222H33.2221H33.2222H33.2222H33.2223H33.2224H33.2224H33.2225H33.2226H33.2226H33.2227H33.2228H33.2228H33.2229H33.223H33.2231H33.2231H33.2232H33.2233H33.2233H33.2234H33.2235H33.2235H33.2236H33.2237H33.2237H33.2238H33.2239H33.2239H33.224H33.2241H33.2242H33.2242H33.2243H33.2244H33.2244H33.2245H33.2246H33.2246H33.2247H33.2248H33.2248H33.2249H33.225H33.225H33.2251H33.2252H33.2252H33.2253H33.2254H33.2255H33.2255H33.2256H33.2257H33.2257H33.2258H33.2259H33.2259H33.226H33.2261H33.2261H33.2262H33.2263H33.2263H33.2264H33.2265H33.2266H33.2266H33.2267H33.2268H33.2268H33.2269H33.227H33.227H33.2271H33.2272H33.2272H33.2273H33.2274H33.2274H33.2275H33.2276H33.2276H33.2277H33.2278H33.2279H33.2279H33.228H33.2281H33.2281H33.2282H33.2283H33.2283H33.2284H33.2285H33.2285H33.2286H33.2287H33.2287H33.2288H33.2289H33.2289H33.229H33.2291H33.2292H33.2292H33.2293H33.2294H33.2294H33.2295H33.2296H33.2296H33.2297H33.2298H33.2298H33.2299H33.23H33.23H33.2301H33.2302H33.2303H33.2303H33.2304H33.2305H33.2305H33.2306H33.2307H33.2307H33.2308H33.2309H33.2309H33.231H33.2311H33.2311H33.2312H33.2313H33.2313H33.2314H33.2315H33.2316H33.2316H33.2317H33.2318H33.2318H33.2319H33.232H33.232H33.2321H33.2322H33.2322H33.2323H33.2324H33.2324H33.2325H33.2326H33.2327H33.2327H33.2328H33.2329H33.2329H33.233H33.2331H33.2331H33.2332H33.2333H33.2333H33.2334H33.2335H33.2335H33.2336H33.2337H33.2337H33.2338H33.2339H33.234H33.234H33.2341H33.2342H33.2342H33.2343H33.2344H33.2344H33.2345H33.2346H33.2346H33.2347H33.2348H33.2348H33.2349H33.235H33.2351H33.2351H33.2352H33.2353H33.2353H33.2354H33.2355H33.2355H33.2356H33.2357H33.2357H33.2358H33.2359H33.2359H33.236H33.2361H33.2361H33.2362H33.2363H33.2364H33.2364H33.2365H33.2366H33.2366H33.2367H33.2368H33.2368H33.2369H33.237H33.237H33.2371H33.2372H33.2372H33.2373H33.2374C34.1296 12.1519 34.866 12.7561 35.0277 13.6284L35.028 13.6306L36.4903 21.7227L35.9984 21.8127L36.4905 21.7238L36.4904 21.7233C36.547 22.0343 36.352 22.2468 36.2594 22.3274C36.1462 22.426 36.0079 22.4926 35.8757 22.5283C35.7486 22.5627 35.5647 22.5851 35.3771 22.5194C35.1541 22.4412 34.9793 22.2538 34.933 21.9924C34.9329 21.9919 34.9328 21.9913 34.9327 21.9908L33.4707 13.9003L33.4707 13.9003L33.4701 13.8971C33.4609 13.8439 33.4452 13.8122 33.4325 13.793C33.4194 13.7734 33.4028 13.757 33.381 13.7427C33.3346 13.7122 33.267 13.6932 33.2002 13.6916C33.1369 13.6957 33.0754 13.7174 33.0335 13.7494C33.0007 13.7745 32.9624 13.8174 32.9498 13.9184M2.05346 38.8915L32.9498 13.9184M32.9498 13.9184C32.9497 13.9186 32.9497 13.9188 32.9497 13.9189L31.8503 22.9275C31.8503 22.9278 31.8502 22.9282 31.8502 22.9285C31.7193 24.0316 30.8045 24.5168 30.0434 24.5168H30.0317C29.2638 24.5168 28.3382 24.0012 28.224 22.8973L28.2239 22.8961L26.7147 7.93801L26.7147 7.93801L26.7143 7.93395C26.7089 7.87538 26.6943 7.84088 26.6826 7.82071C26.6706 7.80007 26.6545 7.78265 26.6326 7.76709C26.5852 7.73334 26.5146 7.71237 26.4488 7.71063C26.3749 7.71502 26.3076 7.73919 26.2656 7.77152C26.2462 7.78651 26.2313 7.80362 26.2198 7.82518C26.2084 7.84663 26.1943 7.88359 26.19 7.94544L26.1899 7.94806L24.1074 35.7968C24.1074 35.797 24.1074 35.7972 24.1074 35.7974C24.0253 36.921 23.108 37.4349 22.3544 37.4655L32.9498 13.9184ZM17.8462 20.0856H17.8643C17.9289 20.0856 17.9912 20.1051 18.0328 20.1352C18.0632 20.1573 18.103 20.1981 18.1186 20.3022L18.1187 20.3033L20.4817 35.9254C20.4818 35.9257 20.4818 35.926 20.4819 35.9262C20.6457 37.0323 21.6161 37.4961 22.3539 37.4655L17.8462 20.0856ZM17.8462 20.0856L17.8281 20.0843M17.8462 20.0856L17.8281 20.0843M17.8281 20.0843C17.776 20.0805 17.7244 20.0948 17.6873 20.1214M17.8281 20.0843L17.6873 20.1214M17.6873 20.1214C17.6579 20.1424 17.6153 20.1861 17.5961 20.2931L17.6873 20.1214Z" stroke="#52E0FF"/>
</svg>
