<svg width="40" height="40" viewBox="0 0 40 40" fill="none" xmlns="http://www.w3.org/2000/svg">
<path d="M33.3333 30C32.8333 30 32.4999 29.8333 32.1666 29.5L20.9999 18.1667L16.9999 22.1667C16.3333 22.8333 15.3333 22.8333 14.6666 22.1667L5.49994 12.8333C4.83327 12.1667 4.83327 11.1667 5.49994 10.5C6.16661 9.83333 7.16661 9.83333 7.83327 10.5L15.8333 18.6667L19.8333 14.6667C20.4999 14 21.4999 14 22.1666 14.6667L34.4999 27.1667C35.1666 27.8333 35.1666 28.8333 34.4999 29.5C34.1666 29.8333 33.8333 30 33.3333 30Z" fill="#52E0FF"/>
<path d="M33.3333 30.0001H23.3333C22.3333 30.0001 21.6666 29.3334 21.6666 28.3334C21.6666 27.3334 22.3333 26.6667 23.3333 26.6667H31.6666V18.3334C31.6666 17.3334 32.3333 16.6667 33.3333 16.6667C34.3333 16.6667 35 17.3334 35 18.3334V28.3334C35 29.3334 34.3333 30.0001 33.3333 30.0001Z" fill="#52E0FF"/>
</svg>
