<svg width="108" height="108" viewBox="0 0 108 108" fill="none" xmlns="http://www.w3.org/2000/svg">
<path d="M54.0471 42.8936C47.9231 42.8936 42.9408 47.8759 42.9408 54C42.9408 55.3102 43.1671 56.5937 43.6139 57.8151C43.9147 58.6373 44.8245 59.06 45.6471 58.7594C46.4691 58.4586 46.8921 57.5484 46.5915 56.726C46.2728 55.8546 46.1112 54.9375 46.1112 53.9998C46.1112 49.6239 49.6712 46.0637 54.0471 46.0637C58.423 46.0637 61.983 49.6239 61.983 53.9998C61.983 58.3757 58.423 61.9359 54.0471 61.9359C52.6019 61.9359 51.1882 61.5442 49.9583 60.803C49.209 60.3518 48.2343 60.5929 47.7824 61.3426C47.3306 62.0925 47.5721 63.0668 48.322 63.5186C50.046 64.5575 52.0255 65.1065 54.0473 65.1065C60.1712 65.1065 65.1536 60.1242 65.1536 54C65.1532 47.8759 60.171 42.8936 54.0471 42.8936Z" fill="#52E0FF"/>
<path d="M76.8447 49.5378L73.9053 49.0959C73.4136 47.0926 72.6264 45.1934 71.5557 43.4263L73.3227 41.0343C74.2188 39.8208 74.0952 38.1658 73.0287 37.0993L70.9474 35.0177C69.8806 33.9512 68.2261 33.8278 67.0125 34.7237L64.6205 36.4905C62.8537 35.4196 60.9544 34.6323 58.9511 34.1407L58.5094 31.2012C58.285 29.7095 57.0274 28.627 55.519 28.627H52.5755C51.0671 28.627 49.8095 29.7097 49.5851 31.2012L49.1432 34.1407C47.1401 34.6323 45.241 35.4194 43.4738 36.4905L41.0818 34.7235C39.8687 33.8274 38.2139 33.9512 37.1472 35.0177L35.0663 37.099C33.9991 38.1658 33.8753 39.8208 34.772 41.0345L36.5386 43.4263C35.4677 45.1931 34.6804 47.0926 34.1892 49.0959L31.2502 49.5378C29.7582 49.7618 28.6755 51.0194 28.6755 52.5283V55.4717C28.6755 56.9805 29.7582 58.2382 31.2498 58.4622L34.1892 58.9041C34.6807 60.9074 35.4679 62.8066 36.5386 64.5737L34.772 66.9655C33.8753 68.1792 33.9991 69.8342 35.0658 70.9007L37.1472 72.9823C38.2141 74.0488 39.8689 74.1724 41.082 73.2761L43.4738 71.5093C45.241 72.5804 47.1399 73.3674 49.1432 73.8591L49.5851 76.7985C49.8095 78.2903 51.0671 79.3728 52.5755 79.3728H55.5188C57.0272 79.3728 58.2848 78.2901 58.5092 76.7983L58.9509 73.8591C60.9542 73.3674 62.8535 72.5802 64.6203 71.5093L67.0125 73.2763C68.2256 74.1724 69.8806 74.0486 70.9472 72.9823L73.0285 70.9007C74.095 69.8342 74.2186 68.1792 73.3223 66.9655L71.5555 64.5737C72.6264 62.8069 73.4136 60.9074 73.9051 58.9041L76.8441 58.4622C78.3361 58.2382 79.4188 56.9805 79.4188 55.4717V52.5283C79.419 51.0197 78.3365 49.7618 76.8447 49.5378ZM76.2486 55.3456L72.3522 55.9313C71.6848 56.0315 71.1543 56.5435 71.03 57.2067C70.5883 59.5603 69.6775 61.7589 68.3222 63.7407C67.9415 64.2976 67.9548 65.0346 68.356 65.5773L70.6978 68.7477L68.7945 70.6508L65.6241 68.3087C65.0814 67.908 64.3446 67.8949 63.7875 68.2752C61.8057 69.6305 59.6074 70.5413 57.2537 70.983C56.5905 71.1075 56.0786 71.6382 55.9784 72.3056L55.3928 76.202H52.7015L52.1157 72.3054C52.0155 71.638 51.5036 71.1072 50.8404 70.983C48.4869 70.5415 46.2888 69.6305 44.3066 68.2752C43.7495 67.8942 43.0127 67.9073 42.4699 68.3089L39.2998 70.6508L37.3965 68.7477L39.7383 65.5773C40.1393 65.0346 40.1528 64.2976 39.7718 63.7407C38.4166 61.7587 37.5057 59.5605 37.0643 57.2069C36.94 56.5435 36.4093 56.0315 35.7421 55.9313L31.8457 55.3456V52.6544L35.7421 52.0687C36.4095 51.9682 36.94 51.4565 37.0643 50.7931C37.5057 48.4397 38.4166 46.2413 39.7718 44.2593C40.1528 43.7025 40.1395 42.9654 39.7383 42.4227L37.3965 39.2523L39.2998 37.3492L42.4699 39.691C43.0127 40.0923 43.7495 40.1051 44.3066 39.7248C46.2888 38.3695 48.4869 37.4585 50.8404 37.0168C51.5036 36.8925 52.0155 36.3618 52.1157 35.6944L52.7015 31.7978H55.3928L55.9784 35.6942C56.0788 36.3616 56.5905 36.8921 57.2537 37.0168C59.6074 37.4585 61.8057 38.3693 63.7875 39.7248C64.3444 40.1055 65.0812 40.0925 65.6241 39.6913L68.7945 37.3492L70.6978 39.2523L68.356 42.4227C67.955 42.9654 67.9415 43.7025 68.3222 44.2593C69.6775 46.2411 70.5883 48.4395 71.03 50.7933C71.1543 51.4565 71.685 51.9685 72.3522 52.0687L76.2486 52.6544V55.3456Z" fill="#52E0FF"/>
<path d="M107.873 53.4284C107.625 52.8434 107.05 52.4635 106.415 52.4635H103.692C103.329 40.6089 98.7672 29.325 90.7543 20.5396C82.5779 11.5752 71.4963 5.94169 59.4982 4.63072L55.1464 0.439599C54.202 -0.533877 52.4162 0.225709 52.4618 1.5814V4.35418C42.7274 4.65835 33.4215 7.76272 25.4575 13.3781C24.742 13.8824 24.571 14.8717 25.0755 15.5872C25.5801 16.3027 26.569 16.474 27.2847 15.9692C35.1427 10.4285 44.397 7.49968 54.0472 7.49968C54.9228 7.49968 55.6324 6.79008 55.6324 5.91448V5.30867L63.9268 13.2969L55.6319 19.999V18.4374C55.6319 17.5618 54.9223 16.8522 54.0467 16.8522C45.13 16.8522 36.5088 20.0593 29.7708 25.8822C23.977 30.8893 19.8869 37.5441 18.0306 44.8858L14.6335 40.681C14.0678 39.9474 12.8854 39.8963 12.2585 40.5779L8.53571 44.4439C10.5038 35.0365 15.3625 26.4284 22.5156 19.8248C23.1589 19.231 23.199 18.228 22.6052 17.5848C22.0117 16.9417 21.0084 16.9016 20.3653 17.4952C11.5622 25.6217 6.01163 36.592 4.6901 48.4374L0.43929 52.8515C-0.533765 53.7967 0.225399 55.5814 1.58109 55.5363H4.40133C4.76414 67.3718 9.31322 78.6419 17.3037 87.4216C25.4565 96.3799 36.5123 102.023 48.4864 103.358L52.8495 107.56C53.7993 108.534 55.5779 107.773 55.5341 106.418V103.649C65.45 103.359 74.9083 100.17 82.9732 94.3817C83.6845 93.8712 83.8474 92.8807 83.3369 92.1694C82.826 91.4581 81.8359 91.2961 81.1246 91.8057C73.1992 97.4936 63.8357 100.5 54.0278 100.5L53.9487 100.499C53.0731 100.499 52.3635 101.208 52.3635 102.084V102.691L44.069 94.7027L52.3635 88.0008V89.5611C52.3635 90.4327 53.0672 91.1408 53.9385 91.1463L54.0465 91.1476C62.9443 91.1476 71.552 87.9523 78.2835 82.1507C84.0714 77.1622 88.1672 70.5276 90.0388 63.2053L93.3619 67.3186C93.9279 68.0518 95.1085 68.1041 95.7369 67.4218L99.5829 63.4279C97.6583 72.7511 92.8915 81.309 85.8665 87.9055C85.2282 88.505 85.1967 89.508 85.7958 90.1463C86.3961 90.7854 87.3993 90.8154 88.0366 90.2169C96.6869 82.0942 102.132 71.1859 103.415 59.4485L107.556 55.1479C107.997 54.6906 108.122 54.0135 107.873 53.4284ZM40.6794 93.3656C39.9458 93.9313 39.8943 95.1134 40.5763 95.7405L44.494 99.5136C34.9734 97.5242 26.2844 92.579 19.6483 85.2875C11.8453 76.7138 7.54831 65.6022 7.54831 54.0055L7.54894 53.9511C7.54894 53.0755 6.83935 52.3659 5.96374 52.3659H5.30836L13.2961 44.071L19.9978 52.3659H18.4858C17.6102 52.3659 16.9006 53.07 16.9006 53.9456L16.9002 54C16.9002 62.9001 20.0963 71.5093 25.9001 78.2416C30.8902 84.0303 37.5265 88.1257 44.8505 89.9957L40.6794 93.3656ZM76.2142 79.7492C70.4336 84.7313 63.1403 87.6119 55.5341 87.9447V84.6821C55.5763 83.3897 53.9314 82.6044 52.9526 83.449L48.0125 87.4406C40.379 86.0712 33.4017 82.0878 28.3014 76.1712C23.3275 70.4013 20.4476 63.1233 20.105 55.5361H23.3167C24.6091 55.5785 25.3945 53.9329 24.5499 52.9544L20.5906 48.0539C21.9427 40.3994 25.9203 33.3999 31.8437 28.2808C37.6056 23.3012 44.8741 20.4133 52.4615 20.0593V23.3175C52.4191 24.6097 54.0647 25.3954 55.043 24.5506L60.0017 20.5441C67.6535 21.8979 74.6507 25.8766 79.7678 31.7993C84.7576 37.5747 87.6459 44.8626 87.9887 52.4635H84.6791C83.3867 52.4211 82.6014 54.0667 83.446 55.0452L87.4848 60.044C86.1135 67.6755 82.1297 74.6508 76.2142 79.7492ZM94.6997 63.9291L87.998 55.6341H89.6079C90.4835 55.6341 91.1931 54.93 91.1931 54.0544L91.1937 54C91.1937 45.0849 87.9881 36.4644 82.167 29.7268C77.1619 23.9336 70.5094 19.8425 63.1698 17.9848L67.3164 14.6342C68.05 14.0685 68.1015 12.8864 67.4195 12.2593L63.4765 8.46198C73.0288 10.4307 81.75 15.3721 88.4118 22.6762C96.2362 31.255 100.545 42.3793 100.545 53.9943L100.545 54.0487C100.545 54.9243 101.254 55.6339 102.13 55.6339H102.687L94.6997 63.9291Z" fill="#52E0FF"/>
</svg>
