<svg width="126" height="126" viewBox="0 0 126 126" fill="none" xmlns="http://www.w3.org/2000/svg">
<g clip-path="url(#clip0_1_79)">
<path d="M104.475 32.025V80.4562C104.475 81.616 103.535 82.5562 102.375 82.5562C101.215 82.5562 100.275 81.616 100.275 80.4562V32.025C100.275 28.5511 97.4487 25.725 93.975 25.725H32.025C28.5513 25.725 25.725 28.5511 25.725 32.025V93.975C25.725 97.4489 28.5513 100.275 32.025 100.275H93.975C97.4487 100.275 100.275 97.4489 100.275 93.975C100.275 92.8153 101.215 91.875 102.375 91.875C103.535 91.875 104.475 92.8153 104.475 93.975C104.475 99.7647 99.7647 104.475 93.975 104.475H32.025C26.2353 104.475 21.525 99.7647 21.525 93.975V32.025C21.525 26.2353 26.2353 21.525 32.025 21.525H93.975C99.7647 21.525 104.475 26.2353 104.475 32.025ZM63 15.225C64.1597 15.225 65.1 14.2847 65.1 13.125V2.1C65.1 0.940275 64.1597 0 63 0C61.8403 0 60.9 0.940275 60.9 2.1V13.125C60.9 14.2847 61.8403 15.225 63 15.225ZM42 15.225C43.1597 15.225 44.1 14.2847 44.1 13.125V2.1C44.1 0.940275 43.1597 0 42 0C40.8403 0 39.9 0.940275 39.9 2.1V13.125C39.9 14.2847 40.8403 15.225 42 15.225ZM84 15.225C85.1597 15.225 86.1 14.2847 86.1 13.125V2.1C86.1 0.940275 85.1597 0 84 0C82.8403 0 81.9 0.940275 81.9 2.1V13.125C81.9 14.2847 82.8403 15.225 84 15.225ZM63 110.775C61.8403 110.775 60.9 111.715 60.9 112.875V123.9C60.9 125.06 61.8403 126 63 126C64.1597 126 65.1 125.06 65.1 123.9V112.875C65.1 111.715 64.1597 110.775 63 110.775ZM84 110.775C82.8403 110.775 81.9 111.715 81.9 112.875V123.9C81.9 125.06 82.8403 126 84 126C85.1597 126 86.1 125.06 86.1 123.9V112.875C86.1 111.715 85.1597 110.775 84 110.775ZM42 110.775C40.8403 110.775 39.9 111.715 39.9 112.875V123.9C39.9 125.06 40.8403 126 42 126C43.1597 126 44.1 125.06 44.1 123.9V112.875C44.1 111.715 43.1597 110.775 42 110.775ZM123.9 60.9H112.875C111.715 60.9 110.775 61.8403 110.775 63C110.775 64.1597 111.715 65.1 112.875 65.1H123.9C125.06 65.1 126 64.1597 126 63C126 61.8403 125.06 60.9 123.9 60.9ZM112.875 44.1H123.9C125.06 44.1 126 43.1597 126 42C126 40.8403 125.06 39.9 123.9 39.9H112.875C111.715 39.9 110.775 40.8403 110.775 42C110.775 43.1597 111.715 44.1 112.875 44.1ZM123.9 81.9H112.875C111.715 81.9 110.775 82.8403 110.775 84C110.775 85.1597 111.715 86.1 112.875 86.1H123.9C125.06 86.1 126 85.1597 126 84C126 82.8403 125.06 81.9 123.9 81.9ZM13.125 60.9H2.1C0.940275 60.9 0 61.8403 0 63C0 64.1597 0.940275 65.1 2.1 65.1H13.125C14.2847 65.1 15.225 64.1597 15.225 63C15.225 61.8403 14.2847 60.9 13.125 60.9ZM13.125 81.9H2.1C0.940275 81.9 0 82.8403 0 84C0 85.1597 0.940275 86.1 2.1 86.1H13.125C14.2847 86.1 15.225 85.1597 15.225 84C15.225 82.8403 14.2847 81.9 13.125 81.9ZM13.125 39.9H2.1C0.940275 39.9 0 40.8403 0 42C0 43.1597 0.940275 44.1 2.1 44.1H13.125C14.2847 44.1 15.225 43.1597 15.225 42C15.225 40.8403 14.2847 39.9 13.125 39.9ZM65.7841 70.5847C67.3228 72.1235 67.3231 74.614 65.7838 76.1531C64.2453 77.6919 61.7547 77.6921 60.2157 76.1528C58.6769 74.6146 58.6764 72.1232 60.2159 70.5844C61.7547 69.0456 64.2453 69.0456 65.7841 70.5847ZM72.6521 66.6865C73.4722 65.8665 73.4722 64.5369 72.6521 63.7169C67.3179 58.3824 58.6832 58.3816 53.3481 63.7169C52.5281 64.5369 52.5281 65.8665 53.3481 66.6865C54.1684 67.5069 55.4977 67.5066 56.3181 66.6865C60.0109 62.9934 65.9888 62.9932 69.6819 66.6865C70.502 67.5066 71.8315 67.5066 72.6521 66.6865ZM80.4481 58.8908C81.2682 58.0708 81.2682 56.7412 80.4481 55.9212C70.8044 46.2777 55.1967 46.2769 45.5519 55.9212C44.7318 56.7412 44.7318 58.0708 45.5519 58.8908C46.3722 59.7109 47.7015 59.7109 48.5218 58.8908C56.5231 50.889 69.4756 50.888 77.4779 58.8908C78.2982 59.7109 79.6275 59.7109 80.4481 58.8908Z" fill="#52E0FF"/>
</g>
<defs>
<clipPath id="clip0_1_79">
<rect width="126" height="126" fill="white"/>
</clipPath>
</defs>
</svg>
