<svg width="109" height="109" viewBox="0 0 109 109" fill="none" xmlns="http://www.w3.org/2000/svg">
<path d="M49.2842 43.4297C49.2842 44.3112 48.569 45.0264 47.6875 45.0264H45.0264V63.9736H63.9736V45.0264H54.5C53.6185 45.0264 52.9033 44.3112 52.9033 43.4297C52.9033 42.5482 53.6185 41.833 54.5 41.833H64.7188C66.0684 41.833 67.167 42.9316 67.167 44.2812V64.7188C67.167 66.0684 66.0684 67.167 64.7188 67.167H44.2812C42.9316 67.167 41.833 66.0684 41.833 64.7188V44.2812C41.833 42.9316 42.9316 41.833 44.2812 41.833H47.6875C48.569 41.833 49.2842 42.5482 49.2842 43.4297Z" fill="#52E0FF"/>
<path d="M100.165 6.38672C101.515 6.38672 102.613 7.48527 102.613 8.83496V19.9053C102.613 21.255 101.515 22.3535 100.165 22.3535H89.0947C87.745 22.3535 86.6465 21.255 86.6465 19.9053V8.83496C86.6465 7.48527 87.745 6.38672 89.0947 6.38672H100.165ZM89.8398 19.1602H99.4199V9.58008H89.8398V19.1602Z" fill="#52E0FF"/>
<path d="M89.0947 86.6465H100.165C101.515 86.6465 102.613 87.745 102.613 89.0947V100.165C102.613 101.515 101.515 102.613 100.165 102.613H89.0947C87.745 102.613 86.6465 101.515 86.6465 100.165V89.0947C86.6465 87.745 87.745 86.6465 89.0947 86.6465ZM89.8398 99.4199H99.4199V89.8398H89.8398V99.4199Z" fill="#52E0FF"/>
<path d="M24.5889 28.7402H4.15137C1.86196 28.7402 0 26.8783 0 24.5889V4.15137C0 1.86196 1.86196 0 4.15137 0H24.5889C26.8783 0 28.7402 1.86196 28.7402 4.15137V12.7734H47.9004C48.7819 12.7734 49.4971 13.4886 49.4971 14.3701V35.4463H58.2256V29.2109C56.367 28.5515 55.0322 26.7768 55.0322 24.6953C55.0322 22.0541 57.1811 19.9053 59.8223 19.9053C62.4634 19.9053 64.6123 22.0541 64.6123 24.6953C64.6123 26.7768 63.2776 28.5515 61.4189 29.2109V35.4463H68.5524C71.31 35.4463 73.5537 37.69 73.5537 40.4476V49.71H93.0332V28.7402H84.4111C82.1217 28.7402 80.2598 26.8783 80.2598 24.5889V20.4375C80.2598 19.556 80.9749 18.8408 81.8564 18.8408C82.7379 18.8408 83.4531 19.556 83.4531 20.4375V24.5889C83.4531 25.1169 83.8831 25.5469 84.4111 25.5469H104.849C105.377 25.5469 105.807 25.1169 105.807 24.5889V4.15137C105.807 3.6233 105.377 3.19336 104.849 3.19336H84.4111C83.8831 3.19336 83.4531 3.6233 83.4531 4.15137V13.625C83.4531 14.5065 82.7379 15.2217 81.8564 15.2217C80.9749 15.2217 80.2598 14.5065 80.2598 13.625V4.15137C80.2598 1.86196 82.1217 0 84.4111 0H104.849C107.138 0 109 1.86196 109 4.15137V24.5889C109 26.8783 107.138 28.7402 104.849 28.7402H96.2266V51.3066C96.2266 52.1881 95.5114 52.9033 94.6299 52.9033H73.5537V59.7158H75.7442C76.4036 57.8572 78.1783 56.5225 80.2598 56.5225C82.9009 56.5225 85.0498 58.6713 85.0498 61.3125C85.0498 63.9537 82.9009 66.1025 80.2598 66.1025C78.1783 66.1025 76.4036 64.7678 75.7442 62.9092H73.5537V68.5524C73.5537 71.31 71.31 73.5537 68.5524 73.5537H61.4189V92.5193H80.2598V84.4111C80.2598 82.1217 82.1217 80.2598 84.4111 80.2598H104.849C107.138 80.2598 109 82.1217 109 84.4111V104.849C109 107.138 107.138 109 104.849 109H84.4111C82.1217 109 80.2598 107.138 80.2598 104.849V95.7126H59.8223C58.9408 95.7126 58.2256 94.9975 58.2256 94.116V73.5537H49.4971V80.6406C51.3557 81.3001 52.6904 83.0747 52.6904 85.1562C52.6904 87.7974 50.5416 89.9463 47.9004 89.9463C45.2592 89.9463 43.1104 87.7974 43.1104 85.1562C43.1104 83.0747 44.4451 81.3001 46.3037 80.6406V73.5537H40.4476C37.69 73.5537 35.4463 71.31 35.4463 68.5524V57.6825H15.9643V80.2598H24.5889C26.8783 80.2598 28.7402 82.1217 28.7402 84.4111V88.5625C28.7402 89.444 28.0251 90.1592 27.1436 90.1592C26.2621 90.1592 25.5469 89.444 25.5469 88.5625V84.4111C25.5469 83.8831 25.1169 83.4531 24.5889 83.4531H4.15137C3.6233 83.4531 3.19336 83.8831 3.19336 84.4111V104.849C3.19336 105.377 3.6233 105.807 4.15137 105.807H24.5889C25.1169 105.807 25.5469 105.377 25.5469 104.849V95.3484C25.5469 94.4669 26.2621 93.7517 27.1436 93.7517C28.0251 93.7517 28.7402 94.4669 28.7402 95.3484V104.849C28.7402 107.138 26.8783 109 24.5889 109H4.15137C1.86196 109 0 107.138 0 104.849V84.4111C0 82.1217 1.86196 80.2598 4.15137 80.2598H12.7709V56.0859C12.7709 55.2044 13.4861 54.4892 14.3676 54.4892H35.4463V49.0713H27.8379C27.1785 50.9299 25.4038 52.2646 23.3223 52.2646C20.6812 52.2646 18.5323 50.1158 18.5323 47.4746C18.5323 44.8334 20.6812 42.6846 23.3223 42.6846C25.4038 42.6846 27.1785 44.0193 27.8379 45.8779H35.4463V40.4476C35.4463 37.69 37.69 35.4463 40.4476 35.4463H46.3037V15.9668H28.7402V24.5889C28.7402 26.8783 26.8783 28.7402 24.5889 28.7402ZM59.8223 23.0986C58.9416 23.0986 58.2256 23.8146 58.2256 24.6953C58.2256 25.576 58.9416 26.292 59.8223 26.292C60.7029 26.292 61.4189 25.576 61.4189 24.6953C61.4189 23.8146 60.7029 23.0986 59.8223 23.0986ZM80.2598 62.9092C81.1404 62.9092 81.8564 62.1932 81.8564 61.3125C81.8564 60.4318 81.1404 59.7158 80.2598 59.7158C79.3791 59.7158 78.6631 60.4318 78.6631 61.3125C78.6631 62.1932 79.3791 62.9092 80.2598 62.9092ZM83.4531 104.849C83.4531 105.377 83.8831 105.807 84.4111 105.807H104.849C105.377 105.807 105.807 105.377 105.807 104.849V84.4111C105.807 83.8831 105.377 83.4531 104.849 83.4531H84.4111C83.8831 83.4531 83.4531 83.8831 83.4531 84.4111V104.849ZM47.9004 86.7529C48.7811 86.7529 49.4971 86.0369 49.4971 85.1562C49.4971 84.2756 48.7811 83.5596 47.9004 83.5596C47.0197 83.5596 46.3037 84.2756 46.3037 85.1562C46.3037 86.0369 47.0197 86.7529 47.9004 86.7529ZM23.3223 45.8779C22.4417 45.8779 21.7257 46.5939 21.7257 47.4746C21.7257 48.3553 22.4417 49.0713 23.3223 49.0713C24.203 49.0713 24.919 48.3553 24.919 47.4746C24.919 46.5939 24.203 45.8779 23.3223 45.8779ZM38.6396 40.4476V68.5524C38.6396 69.5495 39.4505 70.3604 40.4476 70.3604H68.5524C69.5495 70.3604 70.3604 69.5495 70.3604 68.5524V40.4476C70.3604 39.4505 69.5495 38.6396 68.5524 38.6396H40.4476C39.4505 38.6396 38.6396 39.4505 38.6396 40.4476ZM24.5889 3.19336H4.15137C3.6233 3.19336 3.19336 3.6233 3.19336 4.15137V24.5889C3.19336 25.1169 3.6233 25.5469 4.15137 25.5469H24.5889C25.1169 25.5469 25.5469 25.1169 25.5469 24.5889V14.4117C25.546 14.3976 25.5444 14.3843 25.5444 14.3701C25.5444 14.356 25.546 14.3427 25.5469 14.3285V4.15137C25.5469 3.6233 25.1169 3.19336 24.5889 3.19336Z" fill="#52E0FF"/>
<path d="M19.9053 22.3535H8.83496C7.48527 22.3535 6.38672 21.255 6.38672 19.9053V8.83496C6.38672 7.48527 7.48527 6.38672 8.83496 6.38672H19.9053C21.255 6.38672 22.3535 7.48527 22.3535 8.83496V19.9053C22.3535 21.255 21.255 22.3535 19.9053 22.3535ZM19.1602 9.58008H9.58008V19.1602H19.1602V9.58008Z" fill="#52E0FF"/>
<path d="M8.83496 102.613C7.48527 102.613 6.38672 101.515 6.38672 100.165V89.0947C6.38672 87.745 7.48527 86.6465 8.83496 86.6465H19.9053C21.255 86.6465 22.3535 87.745 22.3535 89.0947V100.165C22.3535 101.515 21.255 102.613 19.9053 102.613H8.83496ZM19.1602 89.8398H9.58008V99.4199H19.1602V89.8398Z" fill="#52E0FF"/>
</svg>
