<svg width="112" height="112" viewBox="0 0 112 112" fill="none" xmlns="http://www.w3.org/2000/svg">
<path d="M56.0002 0C47.7626 0 39.9276 1.77699 32.8781 4.97653C30.6092 6.00558 32.1514 9.40687 34.4204 8.37812C40.997 5.39336 48.2997 3.73695 56.0002 3.73695C84.8884 3.73695 108.267 27.1116 108.267 55.9999C108.267 68.1385 104.089 79.2512 97.1471 88.1267C96.5594 88.8871 96.6394 89.967 97.3367 90.6277L101.898 95.2032H87.719V81.0391L92.0176 85.3231C93.7818 87.1504 96.487 84.4304 94.6497 82.6761L87.1831 75.2095C86.8232 74.8554 86.3352 74.6621 85.8305 74.6733C84.8166 74.6945 84.0042 75.5188 84.0002 76.5327V97.0625C83.9966 98.0934 84.8287 98.9325 85.8596 98.9365H106.389C108.049 98.9359 108.883 96.9311 107.713 95.7536L101.095 89.1106C107.926 79.8292 112 68.3888 112 55.9992C112 25.0941 86.9059 0 56.0002 0V0ZM56.0002 7.47024C48.9664 7.47024 42.2644 8.96278 36.2252 11.6592C33.8833 12.6449 35.4397 16.1513 37.742 15.0753C43.3141 12.5873 49.496 11.2035 56.0002 11.2035C80.7646 11.2035 100.796 31.2354 100.796 55.9999C100.796 63.2899 99.0576 70.1591 95.9729 76.2416C94.6676 78.5102 98.2228 80.3248 99.2942 77.9368C102.636 71.3466 104.53 63.8839 104.53 55.9999C104.53 29.2179 82.7821 7.47024 56.0002 7.47024V7.47024ZM5.59268 13.0632C3.93263 13.0638 3.09897 15.0686 4.26919 16.2461L10.89 22.8888C4.06016 32.1702 0 43.61 0 56.0002C0 86.9056 25.0944 112 56.0002 112C64.2377 112 72.0581 110.227 79.1073 107.027C81.3769 105.998 79.8346 102.593 77.5651 103.622C70.9888 106.607 63.7003 108.267 56.0002 108.267C27.1119 108.267 3.71907 84.8881 3.71907 56.0002C3.71907 43.8612 7.85617 32.7121 14.7987 23.8366C15.3797 23.0905 15.314 22.0299 14.6457 21.3611L10.0994 16.7965H24.2671V30.9642L19.9649 26.6766C18.2006 24.8499 15.4961 27.5693 17.3327 29.3236L24.803 36.7938C25.9792 37.9892 28.0128 37.1473 28.0004 35.4703V14.9369C28.004 13.9002 27.1631 13.059 26.1265 13.0629L5.59268 13.0632ZM58.1437 25.138L35.7548 60.6047C34.9699 61.844 35.8556 63.4628 37.3224 63.4704H52.1099L50.3999 85.7245C50.2627 87.6511 52.7833 88.4921 53.8306 86.8693L76.238 51.399C77.0271 50.1527 76.1274 48.5263 74.6521 48.5332H57.8559C55.3646 48.5332 55.3646 52.2702 57.8559 52.2702H71.2763L54.6988 78.5054L55.982 61.7492C56.0668 60.665 55.2104 59.7377 54.1226 59.7368H40.7131L57.2906 33.4867L56.5724 42.7473C56.3185 45.2898 60.1745 45.573 60.2948 43.0208L61.5889 26.2794C61.6783 25.1565 60.7598 24.2107 59.6347 24.2686C59.0258 24.2968 58.469 24.6227 58.1437 25.1383V25.138ZM14.2734 33.0314C13.5982 33.0669 12.9929 33.4583 12.6912 34.0632C9.34901 40.6531 7.45207 48.1158 7.45207 56.0002C7.45207 82.7821 29.2178 104.533 55.9998 104.533C63.0336 104.533 69.721 103.041 75.7602 100.344C78.0401 99.3333 76.5233 95.9135 74.2435 96.9247C68.6714 99.4127 62.504 100.796 55.9998 100.796C31.2354 100.796 11.189 80.7646 11.189 56.0002C11.189 48.7099 12.9278 41.8409 16.0126 35.7584C16.6766 34.4828 15.7099 32.9672 14.2734 33.0314V33.0314Z" fill="#52E0FF"/>
</svg>
