<svg width="40" height="40" viewBox="0 0 40 40" fill="none" xmlns="http://www.w3.org/2000/svg">
<g clip-path="url(#clip0_1_382)">
<path d="M7.4883 31.9162L0.41723 24.8451C-0.289876 24.138 -0.289876 23.1952 0.417231 22.4881C1.12434 21.781 2.06715 21.781 2.77425 22.4881L8.66681 28.3807L14.5594 22.4881C15.2665 21.781 16.2093 21.781 16.9164 22.4881C17.6235 23.1952 17.6235 24.138 16.9164 24.8451L9.84532 31.9162C9.13821 32.6233 8.1954 32.6233 7.4883 31.9162Z" fill="#52E0FF"/>
<path d="M29.6065 2.17853L36.6776 9.2496C37.3847 9.95671 37.3847 10.8995 36.6776 11.6066C35.9705 12.3137 35.0277 12.3137 34.3206 11.6066L28.428 5.71407L22.5355 11.6066C21.8284 12.3137 20.8856 12.3137 20.1785 11.6066C19.4714 10.8995 19.4714 9.95671 20.1785 9.2496L27.2495 2.17853C27.9566 1.47143 28.8994 1.47143 29.6065 2.17853Z" fill="#52E0FF"/>
<rect x="10.0001" y="3" width="26" height="3" rx="1.5" transform="rotate(90 10.0001 3)" fill="#52E0FF"/>
<rect x="30.0001" y="5" width="27" height="3" rx="1.5" transform="rotate(90 30.0001 5)" fill="#52E0FF"/>
</g>
<defs>
<clipPath id="clip0_1_382">
<rect width="40" height="40" fill="white"/>
</clipPath>
</defs>
</svg>
