<svg width="42" height="42" viewBox="0 0 42 42" fill="none" xmlns="http://www.w3.org/2000/svg">
<g clip-path="url(#clip0_1_339)">
<path d="M19.7638 27.2327V11.01C19.7638 10.3304 19.213 9.77954 18.5334 9.77954C17.854 9.77954 17.3029 10.3304 17.3029 11.01V27.2327C15.14 27.7825 13.5352 29.7461 13.5352 32.0783C13.5352 34.8346 15.7773 37.077 18.5334 37.077C21.2894 37.077 23.5318 34.8346 23.5318 32.0783C23.5318 29.7461 21.9268 27.7825 19.7638 27.2327ZM18.5334 34.6161C17.1343 34.6161 15.9962 33.4776 15.9962 32.0783C15.9962 30.6786 17.1343 29.5401 18.5334 29.5401C19.9327 29.5401 21.0709 30.6786 21.0709 32.0783C21.0709 33.4776 19.9327 34.6161 18.5334 34.6161Z" fill="#52E0FF"/>
<path d="M24.6402 24.2588V6.10748C24.6402 2.73972 21.9008 0 18.5334 0C15.1662 0 12.4268 2.73972 12.4268 6.10748V24.2588C10.0274 26.1343 8.61334 29.0102 8.61334 32.0781C8.61334 37.5492 13.0635 42 18.5334 42C24.0035 42 28.4537 37.5492 28.4537 32.0781C28.4537 29.0102 27.0396 26.1343 24.6402 24.2588ZM18.5334 39.5391C14.4203 39.5391 11.0743 36.1921 11.0743 32.0781C11.0743 29.6033 12.2983 27.2943 14.3488 25.9014C14.6859 25.6723 14.8878 25.2909 14.8878 24.8833V6.10748C14.8878 4.09676 16.5233 2.46094 18.5334 2.46094C20.5438 2.46094 22.1793 4.09676 22.1793 6.10748V24.8833C22.1793 25.2909 22.3811 25.6723 22.7182 25.9014C24.7687 27.2943 25.9928 29.6033 25.9928 32.0781C25.9928 36.1921 22.6465 39.5391 18.5334 39.5391Z" fill="#52E0FF"/>
<path d="M32.1451 19.6455H28.3316C27.652 19.6455 27.1011 20.1963 27.1011 20.876C27.1011 21.5556 27.652 22.1064 28.3316 22.1064H32.1451C32.8244 22.1064 33.3756 21.5556 33.3756 20.876C33.3756 20.1963 32.8244 19.6455 32.1451 19.6455Z" fill="#52E0FF"/>
<path d="M32.1451 14.7227H28.3316C27.652 14.7227 27.1011 15.2735 27.1011 15.9531C27.1011 16.6328 27.652 17.1836 28.3316 17.1836H32.1451C32.8244 17.1836 33.3756 16.6328 33.3756 15.9531C33.3756 15.2735 32.8244 14.7227 32.1451 14.7227Z" fill="#52E0FF"/>
<path d="M32.1451 9.7998H28.3316C27.652 9.7998 27.1011 10.3506 27.1011 11.0303C27.1011 11.7099 27.652 12.2607 28.3316 12.2607H32.1451C32.8244 12.2607 33.3756 11.7099 33.3756 11.0303C33.3756 10.3506 32.8244 9.7998 32.1451 9.7998Z" fill="#52E0FF"/>
<path d="M28.3316 7.33789H32.1451C32.8244 7.33789 33.3756 6.78706 33.3756 6.10742C33.3756 5.4281 32.8244 4.87695 32.1451 4.87695H28.3316C27.652 4.87695 27.1011 5.4281 27.1011 6.10742C27.1011 6.78706 27.652 7.33789 28.3316 7.33789Z" fill="#52E0FF"/>
</g>
<defs>
<clipPath id="clip0_1_339">
<rect width="42" height="42" fill="white"/>
</clipPath>
</defs>
</svg>
