<svg width="40" height="40" viewBox="0 0 40 40" fill="none" xmlns="http://www.w3.org/2000/svg">
<path d="M28.6166 16.4724L18.8607 24.8456C18.8477 24.8567 18.8347 24.8679 18.8233 24.8798C18.5075 25.1864 18.3334 25.5955 18.3334 26.0317C18.3334 26.9285 19.0805 27.6586 20 27.6586C20.4427 27.6586 20.861 27.4902 21.2159 27.1438L29.7934 17.6203C30.0831 17.2985 30.0668 16.8116 29.756 16.5081C29.445 16.2055 28.9486 16.1895 28.6166 16.4724Z" fill="#00D1FF"/>
<path d="M20 6.50781C8.97133 6.50781 0 15.2664 0 26.0316C0 28.051 0.320625 30.0499 0.950547 31.974C1.06125 32.3108 1.38188 32.5396 1.74484 32.5396H38.2552C38.6182 32.5396 38.9388 32.3108 39.0495 31.974C39.6794 30.0499 40 28.0511 40 26.0316C40 15.2664 31.0287 6.50781 20 6.50781ZM35.8334 26.8451H38.2755C38.2112 28.221 38.0227 29.5866 37.6367 30.9126H2.36328C1.97734 29.5866 1.78883 28.221 1.72445 26.8451H4.16664C4.62727 26.8451 5 26.4813 5 26.0316C5 25.582 4.62727 25.2181 4.16664 25.2181H1.70883C1.83234 22.555 2.5432 20.0424 3.73602 17.8045L5.8707 19.0081C6.00258 19.082 6.14578 19.1169 6.28734 19.1169C6.57383 19.1169 6.85539 18.9716 7.00836 18.7102C7.23945 18.3209 7.10273 17.8236 6.70398 17.5988L4.57406 16.3979C6.00555 14.2214 7.90234 12.3699 10.132 10.9726L11.3622 13.0531C11.5152 13.3137 11.7968 13.4598 12.0832 13.4598C12.2248 13.4598 12.368 13.4249 12.4998 13.351C12.8986 13.1262 13.0353 12.6288 12.8042 12.2396L11.5716 10.1551C13.8642 8.99054 16.4383 8.29653 19.1666 8.17595V10.5752C19.1666 11.0249 19.5393 11.3888 19.9999 11.3888C20.4605 11.3888 20.8333 11.0249 20.8333 10.5752V8.17595C23.5616 8.29653 26.1356 8.99054 28.4282 10.1551L27.1956 12.2396C26.9645 12.6288 27.1012 13.1262 27.5 13.351C27.6319 13.4249 27.7751 13.4598 27.9166 13.4598C28.2031 13.4598 28.4847 13.3136 28.6377 13.0531L29.8678 10.9726C32.0975 12.3699 33.9943 14.2214 35.4258 16.3979L33.2959 17.5988C32.8971 17.8236 32.7604 18.3209 32.9915 18.7102C33.1445 18.9716 33.4261 19.1169 33.7125 19.1169C33.8541 19.1169 33.9973 19.082 34.1291 19.0081L36.2638 17.8045C37.4566 20.0425 38.1675 22.555 38.291 25.2181H35.8332C35.3726 25.2181 34.9998 25.582 34.9998 26.0316C35 26.4813 35.3727 26.8451 35.8334 26.8451Z" fill="#00D1FF"/>
</svg>
