<svg width="41" height="41" viewBox="0 0 41 41" fill="none" xmlns="http://www.w3.org/2000/svg">
<g clip-path="url(#clip0_1_352)">
<path d="M38.2667 7.79H32.8V7.10669C32.8 5.59714 31.5762 4.37339 30.0667 4.37339V2.39169C30.0667 1.0708 28.9959 0 27.675 0C26.3541 0 25.2833 1.0708 25.2833 2.39169V4.37339C23.7738 4.37339 22.55 5.59714 22.55 7.10669V7.79H17.7667V7.10669C17.7667 5.59714 16.5429 4.37339 15.0334 4.37339V2.39169C15.0333 1.0708 13.9626 0 12.6417 0C11.3208 0 10.25 1.0708 10.25 2.39169V4.37339C8.74045 4.37339 7.51669 5.59714 7.51669 7.10669V7.79H2.73331C1.22376 7.79 1.27127e-06 9.01375 1.27127e-06 10.5233V35.1233C-0.000879588 36.0373 0.456046 36.8911 1.21703 37.3974L5.93747 40.5442C6.38671 40.8428 6.91443 41.0014 7.45375 41H33.5462C34.0859 41.0004 34.6137 40.8406 35.0624 40.5408L39.7829 37.3941C40.5428 36.8884 40.9996 36.0362 40.9999 35.1234V10.5234C41 9.01375 39.7762 7.79 38.2667 7.79ZM26.65 2.39169C26.65 1.82562 27.1089 1.36669 27.675 1.36669C28.2411 1.36669 28.7 1.82562 28.7 2.39169V4.37339H26.65V2.39169ZM23.9167 7.10669C23.9167 6.35188 24.5286 5.74 25.2834 5.74H30.0667C30.8215 5.74 31.4334 6.35188 31.4334 7.10669V7.79H23.9167V7.10669ZM11.6167 2.39169C11.6167 1.82562 12.0756 1.36669 12.6417 1.36669C13.2078 1.36669 13.6667 1.82562 13.6667 2.39169V4.37339H11.6167V2.39169ZM8.88331 7.10669C8.88331 6.35188 9.49518 5.74 10.25 5.74H15.0333C15.7881 5.74 16.4 6.35188 16.4 7.10669V7.79H8.88331V7.10669ZM39.6333 35.1233C39.6332 35.5803 39.4048 36.007 39.0245 36.2603L34.3033 39.4036C34.0792 39.5534 33.8157 39.6333 33.5462 39.6332H7.45383C7.18429 39.6332 6.92083 39.5534 6.69669 39.4036L1.97553 36.257C1.59628 36.0042 1.3679 35.5791 1.36669 35.1233V10.5233C1.36669 9.76849 1.97857 9.15661 2.73339 9.15661H38.2667C39.0215 9.15661 39.6334 9.76849 39.6334 10.5233V35.1233H39.6333Z" fill="#52E0FF"/>
<path d="M36.9 11.2068H4.09999C3.72259 11.2068 3.41669 11.5128 3.41669 11.8901V30.3401C3.41669 30.7175 3.72267 31.0234 4.09999 31.0234H36.9C37.2774 31.0234 37.5833 30.7175 37.5833 30.3401V11.8901C37.5833 11.5127 37.2774 11.2068 36.9 11.2068ZM20.5 25.5568C22.8757 25.5596 24.8893 27.3055 25.2287 29.6568H15.7713C16.1108 27.3055 18.1243 25.5595 20.5 25.5568ZM36.2167 29.6568H26.6097C26.2883 26.8029 24.037 24.5499 21.1834 24.2264V20.0901C21.1834 19.7127 20.8775 19.4068 20.5001 19.4068C20.1227 19.4068 19.8168 19.7128 19.8168 20.0901V24.2297C16.9642 24.553 14.7133 26.8042 14.3904 29.6568H4.7833V12.5734H36.2166V29.6568H36.2167Z" fill="#52E0FF"/>
<path d="M20.5 18.0399C20.8774 18.0399 21.1833 17.7339 21.1833 17.3566V15.3066C21.1833 14.9292 20.8774 14.6233 20.5 14.6233C20.1226 14.6233 19.8167 14.9293 19.8167 15.3066V17.3566C19.8167 17.734 20.1226 18.0399 20.5 18.0399Z" fill="#52E0FF"/>
<path d="M7.14084 23.4118L8.91753 24.4368C9.24457 24.6254 9.66258 24.5133 9.85132 24.1864C10.04 23.8593 9.92787 23.4413 9.60092 23.2526L7.82422 22.2276C7.49718 22.0389 7.07918 22.151 6.89043 22.4781C6.70177 22.8049 6.81388 23.223 7.14084 23.4118Z" fill="#52E0FF"/>
<path d="M15.416 18.3654C15.4993 18.5949 15.6988 18.7624 15.9392 18.805C16.1796 18.8475 16.4245 18.7586 16.5815 18.5717C16.7385 18.3847 16.7839 18.1282 16.7006 17.8987L16.0043 15.9792C15.9212 15.7496 15.7219 15.5818 15.4815 15.5389C15.2411 15.4961 14.996 15.5848 14.8388 15.7716C14.6815 15.9585 14.6358 16.215 14.719 16.4445L15.416 18.3654Z" fill="#52E0FF"/>
<path d="M11.6331 20.8327C11.876 21.1218 12.3072 21.1593 12.5963 20.9164C12.8854 20.6736 12.9228 20.2423 12.68 19.9532L11.3611 18.3816C11.2095 18.1777 10.9572 18.0747 10.7062 18.1143C10.4551 18.154 10.2469 18.3297 10.1655 18.5704C10.0841 18.8111 10.143 19.0771 10.3184 19.261L11.6331 20.8327Z" fill="#52E0FF"/>
<path d="M31.7415 24.5318C31.8615 24.532 31.9794 24.5005 32.0832 24.4403L33.8599 23.4153C34.1869 23.2266 34.2991 22.8085 34.1104 22.4815C33.9217 22.1544 33.5036 22.0423 33.1766 22.2311L31.3999 23.2561C31.1313 23.4104 31.0002 23.7261 31.0803 24.0253C31.1604 24.3244 31.4318 24.5323 31.7415 24.5318Z" fill="#52E0FF"/>
<path d="M24.7087 18.7746C24.8791 18.8363 25.0671 18.8279 25.2313 18.751C25.3954 18.6741 25.5224 18.5351 25.584 18.3646L26.281 16.4438C26.3641 16.2142 26.3185 15.9576 26.1612 15.7709C26.004 15.5841 25.759 15.4954 25.5185 15.5382C25.2781 15.581 25.0788 15.7488 24.9957 15.9784L24.2994 17.8986C24.2374 18.069 24.2457 18.2571 24.3225 18.4215C24.3992 18.5858 24.5382 18.7129 24.7087 18.7746Z" fill="#52E0FF"/>
<path d="M28.8429 21.0767C29.0451 21.0769 29.237 20.9875 29.367 20.8327L30.6852 19.261C30.8423 19.0741 30.8877 18.8177 30.8044 18.5881C30.7211 18.3586 30.5217 18.191 30.2813 18.1484C30.0409 18.1058 29.796 18.1947 29.6389 18.3816L28.3201 19.9533C28.1499 20.1566 28.1126 20.4402 28.2246 20.6806C28.3366 20.921 28.5776 21.0749 28.8429 21.0754V21.0767Z" fill="#52E0FF"/>
<path d="M11.6167 25.9667C11.9941 25.9667 12.3 25.6608 12.3 25.2834C12.3 24.906 11.9941 24.6001 11.6167 24.6001C11.2393 24.6001 10.9334 24.906 10.9334 25.2834C10.9334 25.6608 11.2393 25.9667 11.6167 25.9667Z" fill="#52E0FF"/>
<path d="M29.3833 25.9667C29.7607 25.9667 30.0666 25.6608 30.0666 25.2834C30.0666 24.906 29.7607 24.6001 29.3833 24.6001C29.0059 24.6001 28.7 24.906 28.7 25.2834C28.7 25.6608 29.0059 25.9667 29.3833 25.9667Z" fill="#52E0FF"/>
<path d="M27.3333 32.8H13.6667C13.2893 32.8 12.9834 33.1059 12.9834 33.4834C12.9834 33.8608 13.2894 34.1667 13.6667 34.1667H27.3334C27.7108 34.1667 28.0167 33.8608 28.0167 33.4834C28.0167 33.1059 27.7107 32.8 27.3333 32.8Z" fill="#52E0FF"/>
<path d="M25.2833 36.2168H15.7167C15.3393 36.2168 15.0334 36.5227 15.0334 36.9001C15.0334 37.2775 15.3394 37.5834 15.7167 37.5834H25.2834C25.6608 37.5834 25.9667 37.2775 25.9667 36.9001C25.9667 36.5227 25.6607 36.2168 25.2833 36.2168Z" fill="#52E0FF"/>
</g>
<defs>
<clipPath id="clip0_1_352">
<rect width="41" height="41" fill="white"/>
</clipPath>
</defs>
</svg>
